# File created by Blade
# Date/Time:  Wed Jan 21 16:33:30 2015
# Frame Rate: 120.000 fps
#------------------------------------------------------
:FULLY-SPECIFIED
:DEGREES
989
root 28.957272 8.657202 -24.810589 -132.594660 96.710296 -24.570026
Spine 2.201527 -3.034993 -1.133088
Head 41.718341 4.066518 -2.037665
LeftShoulder -1.991789 -49.650723 21.759079
LeftArm 19.841032 -47.857658 -35.565732
LeftForeArm 26.390224 0.000000 110.371282
LeftHand 1.859182 -0.000000 100.896308
LeftHandThumb1 -26.253704 0.000000 33.147579
RightShoulder -0.688009 9.035382 -25.206527
RightArm 72.373422 62.873839 89.084204
RightForeArm -79.191319 -0.000000 117.572979
RightHand 7.608071 -0.000000 -78.614515
RightHandThumb1 -24.326973 -0.000000 -32.862282
LeftUpLeg -8.029623 -0.273918 8.805489
LeftLeg 141.925172 -0.000000 -0.000000
LeftFoot -46.892347 30.798497 -9.361769
LeftToeBase 26.547530 -0.000000 -0.000000
RightUpLeg -8.481589 19.291298 -12.034683
RightLeg 143.231720 -0.000000 -0.000000
RightFoot -45.987988 -34.074052 14.446565
RightToeBase 27.538625 -0.000000 -0.000000
990
root 28.966042 8.526077 -24.800352 -133.941812 96.842894 -25.572577
Spine 3.029870 -2.638093 -1.277123
Head 41.506178 3.738873 -2.019649
LeftShoulder -2.130700 -49.626120 21.923909
LeftArm 19.996184 -47.649334 -36.025179
LeftForeArm 26.388698 0.000000 110.561868
LeftHand 1.953378 -0.000000 100.930573
LeftHandThumb1 -26.253704 0.000000 33.147579
RightShoulder -0.371385 9.374579 -24.996024
RightArm 71.393824 63.668858 88.022573
RightForeArm -78.694563 -0.000000 117.731314
RightHand 7.906847 -0.000000 -78.778228
RightHandThumb1 -24.326973 -0.000000 -32.862282
LeftUpLeg -8.219363 -0.221318 8.790576
LeftLeg 142.225802 -0.000000 -0.000000
LeftFoot -46.695922 30.825302 -9.125467
LeftToeBase 26.533779 -0.000000 -0.000000
RightUpLeg -8.897889 19.559203 -12.255139
RightLeg 143.612442 -0.000000 -0.000000
RightFoot -45.794889 -33.791473 14.114456
RightToeBase 27.482101 -0.000000 -0.000000
991
root 28.975147 8.394795 -24.787037 -135.323496 96.949610 -26.754781
Spine 3.761742 -2.082255 -1.337478
Head 41.123956 3.357510 -1.878913
LeftShoulder -2.430388 -49.463574 22.213227
LeftArm 20.410120 -47.509558 -36.845031
LeftForeArm 26.510497 0.000000 110.741985
LeftHand 2.098776 -0.000000 101.013706
LeftHandThumb1 -26.253704 0.000000 33.147579
RightShoulder -0.116337 9.299540 -24.659053
RightArm 71.763925 64.757308 87.903857
RightForeArm -78.428626 -0.000000 117.858814
RightHand 8.189640 0.000000 -78.718872
RightHandThumb1 -24.326973 -0.000000 -32.862282
LeftUpLeg -8.547657 -0.168415 8.820680
LeftLeg 142.513709 -0.000000 -0.000000
LeftFoot -46.484699 30.871000 -8.840874
LeftToeBase 26.615920 -0.000000 -0.000000
RightUpLeg -9.455902 19.842847 -12.468675
RightLeg 143.995320 -0.000000 -0.000000
RightFoot -45.495389 -33.554092 13.587388
RightToeBase 27.476201 -0.000000 -0.000000
992
root 28.990347 8.272698 -24.773265 -136.516941 97.016790 -27.737098
Spine 4.592575 -1.471783 -1.267135
Head 40.455717 3.102271 -1.835468
LeftShoulder -2.471913 -49.787734 22.214937
LeftArm 20.134171 -47.173540 -36.800410
LeftForeArm 26.305731 -0.000000 110.888047
LeftHand 2.106593 -0.000000 101.441595
LeftHandThumb1 -26.253704 0.000000 33.147579
RightShoulder -0.110888 8.971804 -24.475606
RightArm 73.445706 65.676781 89.003860
RightForeArm -78.422671 -0.000000 117.990204
RightHand 8.102806 -0.000000 -78.101009
RightHandThumb1 -24.326973 -0.000000 -32.862282
LeftUpLeg -8.825547 -0.151123 8.872430
LeftLeg 142.808017 -0.000000 -0.000000
LeftFoot -46.274179 30.873748 -8.612179
LeftToeBase 26.718486 -0.000000 -0.000000
RightUpLeg -9.942986 20.059208 -12.659513
RightLeg 144.344120 -0.000000 -0.000000
RightFoot -45.249162 -33.365748 13.193295
RightToeBase 27.445775 -0.000000 -0.000000
993
root 29.006609 8.156988 -24.758094 -137.678410 97.024938 -28.679247
Spine 5.481636 -0.940184 -1.161262
Head 39.678188 2.969350 -1.718932
LeftShoulder -2.449426 -49.878039 22.364969
LeftArm 19.520497 -47.169019 -36.512436
LeftForeArm 25.875886 -0.000000 111.209748
LeftHand 2.114980 -0.000000 101.555431
LeftHandThumb1 -26.253704 0.000000 33.147579
RightShoulder -0.261152 8.617360 -24.156476
RightArm 75.756911 66.258433 90.445944
RightForeArm -78.201553 -0.000000 117.981137
RightHand 8.103300 -0.000000 -77.991824
RightHandThumb1 -24.326973 -0.000000 -32.862282
LeftUpLeg -9.060912 -0.180641 8.982617
LeftLeg 143.110204 -0.000000 -0.000000
LeftFoot -46.137080 30.828158 -8.410869
LeftToeBase 26.849425 -0.000000 -0.000000
RightUpLeg -10.343944 20.231707 -12.759398
RightLeg 144.676698 -0.000000 -0.000000
RightFoot -45.087321 -33.162136 12.879244
RightToeBase 27.490772 -0.000000 -0.000000
